<svg width="100%" height="100%" viewBox="0 0 25 25" version="1.1" xmlns="http://www.w3.org/2000/svg" xmlns:xlink="http://www.w3.org/1999/xlink" xml:space="preserve" xmlns:serif="http://www.serif.com/" style="fill-rule:evenodd;clip-rule:evenodd;stroke-linejoin:round;stroke-miterlimit:2;"><path d="M20.742,0l-17.344,0c-0.901,0 -1.766,0.358 -2.403,0.995c-0.637,0.637 -0.995,1.502 -0.995,2.403l0,17.344c0,0.901 0.358,1.766 0.995,2.403c0.637,0.637 1.502,0.995 2.403,0.995l7.893,-0l0,-8.811l-2.984,-0l0,-3.437l2.984,-0l0,-2.532c0,-1.435 0.397,-2.55 1.191,-3.342c0.793,-0.793 1.869,-1.192 3.229,-1.192c1.36,0 2.242,0.053 2.644,0.153l0,3.06l-1.813,-0c-0.655,-0 -1.102,0.138 -1.341,0.416c-0.239,0.276 -0.358,0.693 -0.358,1.246l-0,2.191l3.399,-0l-0.452,3.437l-2.947,-0l-0,8.811l5.899,-0c0.901,-0 1.766,-0.358 2.403,-0.995c0.637,-0.637 0.995,-1.502 0.995,-2.403l-0,-17.344c-0,-0.901 -0.358,-1.766 -0.995,-2.403c-0.637,-0.637 -1.502,-0.995 -2.403,-0.995Z" style="fill:#fff;fill-rule:nonzero;"/></svg>