<svg width="100%" height="100%" viewBox="0 0 68 68" version="1.1" xmlns="http://www.w3.org/2000/svg" xmlns:xlink="http://www.w3.org/1999/xlink" xml:space="preserve" xmlns:serif="http://www.serif.com/" style="fill-rule:evenodd;clip-rule:evenodd;stroke-linejoin:round;stroke-miterlimit:2;"><g><path d="M33.6,16.123c-9.484,-0 -17.342,7.722 -17.342,17.342c0,9.619 7.723,17.342 17.342,17.342c9.62,-0 17.342,-7.858 17.342,-17.342c0,-9.484 -7.858,-17.342 -17.342,-17.342Zm0,28.451c-6.097,0 -11.11,-5.013 -11.11,-11.109c0,-6.097 5.013,-11.11 11.11,-11.11c6.097,-0 11.11,5.013 11.11,11.11c-0,6.096 -5.013,11.109 -11.11,11.109Z" style="fill:#fff;fill-rule:nonzero;"/><circle cx="51.62" cy="15.716" r="3.929" style="fill:#fff;"/><path d="M61.781,5.555c-3.523,-3.658 -8.536,-5.555 -14.226,-5.555l-27.91,0c-11.787,0 -19.645,7.858 -19.645,19.645l0,27.775c0,5.825 1.897,10.838 5.69,14.496c3.658,3.523 8.536,5.284 14.091,5.284l27.639,0c5.825,0 10.703,-1.896 14.225,-5.284c3.659,-3.522 5.555,-8.535 5.555,-14.361l0,-27.91c0,-5.69 -1.896,-10.568 -5.419,-14.09Zm-0.542,42c-0,4.2 -1.49,7.587 -3.929,9.89c-2.439,2.304 -5.826,3.523 -9.89,3.523l-27.639,0c-4.065,0 -7.452,-1.219 -9.891,-3.523c-2.438,-2.438 -3.658,-5.825 -3.658,-10.025l0,-27.775c0,-4.064 1.22,-7.451 3.658,-9.89c2.304,-2.303 5.826,-3.523 9.891,-3.523l27.91,0c4.064,0 7.451,1.22 9.89,3.658c2.303,2.439 3.658,5.826 3.658,9.755l-0,27.91Z" style="fill:#fff;fill-rule:nonzero;"/></g></svg>