<svg width="100%" height="100%" viewBox="0 0 2134 2134" version="1.1" xmlns="http://www.w3.org/2000/svg" xmlns:xlink="http://www.w3.org/1999/xlink" xml:space="preserve" xmlns:serif="http://www.serif.com/" style="fill-rule:evenodd;clip-rule:evenodd;stroke-linejoin:round;stroke-miterlimit:2;"><path id="Dark_Blue" d="M1866.67,2133.33l-1600,0c-147.2,0 -266.667,-119.466 -266.667,-266.666l-0,-1600c-0,-147.2 119.467,-266.667 266.667,-266.667l1600,-0c147.2,-0 266.666,119.467 266.666,266.667l0,1600c0,147.2 -119.466,266.666 -266.666,266.666Zm-1047.47,-524.8c502.933,0 778.133,-417.066 778.133,-778.133c0,-11.733 0,-23.467 -0.533,-35.2c53.333,-38.4 99.733,-86.933 136.533,-141.867c-49.066,21.867 -101.866,36.267 -157.333,43.2c56.533,-33.6 99.733,-87.466 120.533,-151.466c-52.8,31.466 -111.466,53.866 -173.866,66.133c-50.134,-53.333 -121.067,-86.4 -199.467,-86.4c-150.933,-0 -273.6,122.667 -273.6,273.6c0,21.333 2.667,42.133 6.933,62.4c-227.2,-11.2 -428.8,-120.533 -563.733,-285.867c-23.467,40.534 -36.8,87.467 -36.8,137.6c0,94.934 48.533,178.667 121.6,227.734c-44.8,-1.6 -86.933,-13.867 -123.733,-34.134l-0,3.734c-0,132.266 94.4,243.2 219.2,268.266c-22.934,6.4 -46.934,9.6 -72,9.6c-17.6,0 -34.667,-1.6 -51.2,-4.8c34.666,108.8 136,187.734 255.466,189.867c-93.866,73.6 -211.733,117.333 -339.733,117.333c-21.867,0 -43.733,-1.066 -65.067,-3.733c120.534,76.8 264.534,122.133 418.667,122.133Z" style="fill:#fff;fill-rule:nonzero;"/></svg>